<svg xmlns="http://www.w3.org/2000/svg" viewBox="0 0 760 760" role="img" aria-labelledby="title desc">
  <title id="title">Goutham R.R portfolio card</title>
  <desc id="desc">A clean profile card illustration with code, AI, and project elements.</desc>
  <defs>
    <linearGradient id="panel" x1="0" x2="1" y1="0" y2="1">
      <stop offset="0" stop-color="#ffffff"/>
      <stop offset="1" stop-color="#eef8f6"/>
    </linearGradient>
    <linearGradient id="avatar" x1="0" x2="1" y1="0" y2="1">
      <stop offset="0" stop-color="#0f766e"/>
      <stop offset="1" stop-color="#be3455"/>
    </linearGradient>
    <filter id="shadow" x="-20%" y="-20%" width="140%" height="140%">
      <feDropShadow dx="0" dy="18" stdDeviation="18" flood-color="#18212f" flood-opacity="0.16"/>
    </filter>
  </defs>
  <rect width="760" height="760" fill="#f7f4ed"/>
  <rect x="54" y="54" width="652" height="652" rx="34" fill="url(#panel)" filter="url(#shadow)"/>
  <rect x="96" y="104" width="248" height="248" rx="28" fill="#18212f"/>
  <circle cx="220" cy="190" r="58" fill="url(#avatar)"/>
  <path d="M124 316c20-62 74-94 116-94s96 32 116 94" fill="#eef8f6"/>
  <text x="220" y="193" text-anchor="middle" font-family="Arial, sans-serif" font-size="42" font-weight="700" fill="#ffffff">GR</text>
  <rect x="388" y="104" width="258" height="70" rx="18" fill="#ffffff" stroke="#d9e0e8"/>
  <rect x="414" y="130" width="112" height="12" rx="6" fill="#0f766e"/>
  <rect x="414" y="152" width="188" height="10" rx="5" fill="#d9e0e8"/>
  <rect x="388" y="202" width="258" height="154" rx="18" fill="#18212f"/>
  <circle cx="426" cy="240" r="8" fill="#be3455"/>
  <circle cx="452" cy="240" r="8" fill="#d97706"/>
  <circle cx="478" cy="240" r="8" fill="#0f766e"/>
  <text x="420" y="286" font-family="Consolas, monospace" font-size="22" fill="#eef8f6">&lt;AIChatbot /&gt;</text>
  <text x="420" y="322" font-family="Consolas, monospace" font-size="18" fill="#8dd8cf">RAG + FAISS + Llama</text>
  <rect x="96" y="406" width="550" height="88" rx="20" fill="#ffffff" stroke="#d9e0e8"/>
  <circle cx="140" cy="450" r="18" fill="#0f766e"/>
  <rect x="176" y="430" width="232" height="12" rx="6" fill="#18212f"/>
  <rect x="176" y="456" width="348" height="10" rx="5" fill="#d9e0e8"/>
  <rect x="96" y="526" width="156" height="92" rx="18" fill="#eef8f6" stroke="#b9ded9"/>
  <rect x="282" y="526" width="156" height="92" rx="18" fill="#fff7ed" stroke="#f1c27d"/>
  <rect x="468" y="526" width="178" height="92" rx="18" fill="#fff1f4" stroke="#e8a4b6"/>
  <text x="174" y="580" text-anchor="middle" font-family="Arial, sans-serif" font-size="24" font-weight="700" fill="#0f766e">Python</text>
  <text x="360" y="580" text-anchor="middle" font-family="Arial, sans-serif" font-size="24" font-weight="700" fill="#b45309">SQL</text>
  <text x="557" y="580" text-anchor="middle" font-family="Arial, sans-serif" font-size="24" font-weight="700" fill="#be3455">Streamlit</text>
  <path d="M596 396c28-30 50-30 78 0m-54-35c13-14 24-14 38 0" fill="none" stroke="#0f766e" stroke-width="10" stroke-linecap="round"/>
</svg>
